<svg width="360" height="361" viewBox="0 0 360 361" fill="none" xmlns="http://www.w3.org/2000/svg">
<line x1="360" y1="30.5" x2="-1.58932e-08" y2="30.5" stroke="#0404051a"/>
<line x1="360" y1="60.5" x2="-1.58932e-08" y2="60.5" stroke="#0404051a"/>
<line x1="360" y1="90.5" x2="-1.58932e-08" y2="90.5" stroke="#0404051a"/>
<line x1="360" y1="120.5" x2="-1.58932e-08" y2="120.5" stroke="#0404051a"/>
<line x1="360" y1="150.5" x2="-1.58932e-08" y2="150.5" stroke="#0404051a"/>
<line x1="360" y1="180.5" x2="-1.58932e-08" y2="180.5" stroke="#0404051a"/>
<line x1="360" y1="210.5" x2="-1.58932e-08" y2="210.5" stroke="#0404051a"/>
<line x1="360" y1="240.5" x2="-1.58932e-08" y2="240.5" stroke="#0404051a"/>
<line x1="360" y1="270.5" x2="-1.58932e-08" y2="270.5" stroke="#0404051a"/>
<line x1="360" y1="300.5" x2="-1.58932e-08" y2="300.5" stroke="#0404051a"/>
<line x1="360" y1="330.5" x2="-1.58932e-08" y2="330.5" stroke="#0404051a"/>
<line x1="360" y1="360.5" x2="-1.58932e-08" y2="360.5" stroke="#0404051a"/>
<line x1="359.5" y1="360" x2="359.5" y2="-3.7749e-08" stroke="#0404051a"/>
<line x1="329.5" y1="360" x2="329.5" y2="-3.7749e-08" stroke="#0404051a"/>
<line x1="299.5" y1="360" x2="299.5" y2="-3.7749e-08" stroke="#0404051a"/>
<line x1="269.5" y1="360" x2="269.5" y2="-3.7749e-08" stroke="#0404051a"/>
<line x1="239.5" y1="360" x2="239.5" y2="-3.7749e-08" stroke="#0404051a"/>
<line x1="209.5" y1="360" x2="209.5" y2="-3.7749e-08" stroke="#0404051a"/>
<line x1="179.5" y1="360" x2="179.5" y2="-3.7749e-08" stroke="#0404051a"/>
<line x1="149.5" y1="360" x2="149.5" y2="-3.7749e-08" stroke="#0404051a"/>
<line x1="119.5" y1="360" x2="119.5" y2="-3.7749e-08" stroke="#0404051a"/>
<line x1="89.5" y1="360" x2="89.5" y2="-3.7749e-08" stroke="#0404051a"/>
<line x1="59.5" y1="360" x2="59.5" y2="-3.7749e-08" stroke="#0404051a"/>
<line x1="29.5" y1="360" x2="29.5" y2="7.59165e-06" stroke="#0404051a"/>
</svg>
